<svg width="8" height="8" viewBox="0 0 8 8" fill="none" xmlns="http://www.w3.org/2000/svg">
<path d="M3.44 4.72L2.57 3.85C2.49667 3.77667 2.40667 3.74 2.3 3.74C2.19333 3.74 2.1 3.78 2.02 3.86C1.94667 3.93333 1.91 4.02667 1.91 4.14C1.91 4.25333 1.94667 4.34667 2.02 4.42L3.16 5.56C3.23333 5.63333 3.32667 5.67 3.44 5.67C3.55333 5.67 3.64667 5.63333 3.72 5.56L5.99 3.29C6.06333 3.21667 6.1 3.12667 6.1 3.02C6.1 2.91333 6.06 2.82 5.98 2.74C5.90667 2.66667 5.81333 2.63 5.7 2.63C5.58667 2.63 5.49333 2.66667 5.42 2.74L3.44 4.72ZM4 8C3.44667 8 2.92667 7.89493 2.44 7.6848C1.95333 7.47493 1.53 7.19 1.17 6.83C0.81 6.47 0.525067 6.04667 0.3152 5.56C0.105067 5.07333 0 4.55333 0 4C0 3.44667 0.105067 2.92667 0.3152 2.44C0.525067 1.95333 0.81 1.53 1.17 1.17C1.53 0.81 1.95333 0.524933 2.44 0.3148C2.92667 0.104933 3.44667 0 4 0C4.55333 0 5.07333 0.104933 5.56 0.3148C6.04667 0.524933 6.47 0.81 6.83 1.17C7.19 1.53 7.47493 1.95333 7.6848 2.44C7.89493 2.92667 8 3.44667 8 4C8 4.55333 7.89493 5.07333 7.6848 5.56C7.47493 6.04667 7.19 6.47 6.83 6.83C6.47 7.19 6.04667 7.47493 5.56 7.6848C5.07333 7.89493 4.55333 8 4 8Z" fill="#84F5B8"/>
</svg>
