<svg width="10" height="10" viewBox="0 0 10 10" fill="none" xmlns="http://www.w3.org/2000/svg">
<path d="M5.5 5.0875L6.625 6.2125C6.71667 6.30417 6.7625 6.41883 6.7625 6.5565C6.7625 6.69383 6.71667 6.8125 6.625 6.9125C6.525 7.0125 6.40633 7.0625 6.269 7.0625C6.13133 7.0625 6.0125 7.0125 5.9125 6.9125L4.85 5.85C4.73333 5.73333 4.64583 5.60417 4.5875 5.4625C4.52917 5.32083 4.5 5.16667 4.5 5V3.5C4.5 3.35833 4.548 3.2395 4.644 3.1435C4.73967 3.04783 4.85833 3 5 3C5.14167 3 5.2605 3.04783 5.3565 3.1435C5.45217 3.2395 5.5 3.35833 5.5 3.5V5.0875ZM5 1C5.14167 1 5.2605 1.04783 5.3565 1.1435C5.45217 1.2395 5.5 1.35833 5.5 1.5C5.5 1.64167 5.45217 1.7605 5.3565 1.8565C5.2605 1.95217 5.14167 2 5 2C4.85833 2 4.73967 1.95217 4.644 1.8565C4.548 1.7605 4.5 1.64167 4.5 1.5C4.5 1.35833 4.548 1.2395 4.644 1.1435C4.73967 1.04783 4.85833 1 5 1ZM9 5C9 5.14167 8.952 5.26033 8.856 5.356C8.76033 5.452 8.64167 5.5 8.5 5.5C8.35833 5.5 8.23967 5.452 8.144 5.356C8.048 5.26033 8 5.14167 8 5C8 4.85833 8.048 4.7395 8.144 4.6435C8.23967 4.54783 8.35833 4.5 8.5 4.5C8.64167 4.5 8.76033 4.54783 8.856 4.6435C8.952 4.7395 9 4.85833 9 5ZM5 8C5.14167 8 5.2605 8.048 5.3565 8.144C5.45217 8.23967 5.5 8.35833 5.5 8.5C5.5 8.64167 5.45217 8.76033 5.3565 8.856C5.2605 8.952 5.14167 9 5 9C4.85833 9 4.73967 8.952 4.644 8.856C4.548 8.76033 4.5 8.64167 4.5 8.5C4.5 8.35833 4.548 8.23967 4.644 8.144C4.73967 8.048 4.85833 8 5 8ZM2 5C2 5.14167 1.95217 5.26033 1.8565 5.356C1.7605 5.452 1.64167 5.5 1.5 5.5C1.35833 5.5 1.2395 5.452 1.1435 5.356C1.04783 5.26033 1 5.14167 1 5C1 4.85833 1.04783 4.7395 1.1435 4.6435C1.2395 4.54783 1.35833 4.5 1.5 4.5C1.64167 4.5 1.7605 4.54783 1.8565 4.6435C1.95217 4.7395 2 4.85833 2 5ZM5 10C4.30833 10 3.65833 9.86867 3.05 9.606C2.44167 9.34367 1.9125 8.9875 1.4625 8.5375C1.0125 8.0875 0.656333 7.55833 0.394 6.95C0.131333 6.34167 0 5.69167 0 5C0 4.30833 0.131333 3.65833 0.394 3.05C0.656333 2.44167 1.0125 1.9125 1.4625 1.4625C1.9125 1.0125 2.44167 0.656167 3.05 0.3935C3.65833 0.131167 4.30833 0 5 0C5.69167 0 6.34167 0.131167 6.95 0.3935C7.55833 0.656167 8.0875 1.0125 8.5375 1.4625C8.9875 1.9125 9.34367 2.44167 9.606 3.05C9.86867 3.65833 10 4.30833 10 5C10 5.69167 9.86867 6.34167 9.606 6.95C9.34367 7.55833 8.9875 8.0875 8.5375 8.5375C8.0875 8.9875 7.55833 9.34367 6.95 9.606C6.34167 9.86867 5.69167 10 5 10ZM5 9C6.11667 9 7.0625 8.6125 7.8375 7.8375C8.6125 7.0625 9 6.11667 9 5C9 3.88333 8.6125 2.9375 7.8375 2.1625C7.0625 1.3875 6.11667 1 5 1C3.88333 1 2.9375 1.3875 2.1625 2.1625C1.3875 2.9375 1 3.88333 1 5C1 6.11667 1.3875 7.0625 2.1625 7.8375C2.9375 8.6125 3.88333 9 5 9Z" fill="#46DE8C"/>
</svg>
