<svg width="45" height="46" viewBox="0 0 45 46" fill="none" xmlns="http://www.w3.org/2000/svg">
<mask id="mask0_505_14095" style="mask-type:alpha" maskUnits="userSpaceOnUse" x="0" y="0" width="45" height="46">
<ellipse cx="22.5" cy="22.5871" rx="22.5" ry="22.5871" fill="#D9D9D9"/>
</mask>
<g mask="url(#mask0_505_14095)">
<path fill-rule="evenodd" clip-rule="evenodd" d="M47.4737 41.8782C47.4737 44.1986 45.5954 46.0781 43.2657 46.0781H-0.797843C-3.11697 46.0781 -5.00586 44.1986 -5.00586 41.8782V-2.21001C-5.00586 -4.53037 -3.11697 -6.40985 -0.797843 -6.40985H43.2657C45.5848 -6.40985 47.4737 -4.53037 47.4737 -2.21001V41.8782Z" fill="#FFE600"/>
<path fill-rule="evenodd" clip-rule="evenodd" d="M22.5034 11.4587C15.0379 11.4587 8.98242 16.2559 8.98242 22.1782C8.98242 25.9849 11.492 29.3246 15.2564 31.2281L13.9805 36.004C13.9311 36.1455 13.9734 36.3083 14.0792 36.4145C14.1497 36.4851 14.2484 36.5278 14.3541 36.5278C14.4387 36.5278 14.5162 36.4922 14.5867 36.4356L20.0641 32.721C20.8607 32.8341 21.6714 32.8979 22.4963 32.8979C29.9615 32.8979 36.017 28.1007 36.017 22.1782C36.0241 16.2559 29.9686 11.4587 22.5034 11.4587Z" fill="#381E1E"/>
<path fill-rule="evenodd" clip-rule="evenodd" d="M13.7183 20.5091H12.225C12.0178 20.5091 11.8463 20.459 11.6963 20.3661C11.5462 20.2732 11.4605 20.1373 11.4248 19.9659C11.4176 19.9229 11.4105 19.8657 11.4033 19.8158C11.4033 19.6014 11.4819 19.4298 11.6391 19.3083C11.7963 19.1868 11.9892 19.1225 12.225 19.1225H16.7835C16.9907 19.1225 17.1693 19.1726 17.3123 19.2655C17.4624 19.3584 17.5551 19.487 17.5908 19.6657C17.5981 19.7158 17.6052 19.7657 17.5981 19.8158C17.5981 20.0373 17.5195 20.2089 17.3694 20.3304C17.2194 20.4519 17.0265 20.5091 16.7835 20.5091H15.2973V25.6478C15.2973 25.8908 15.2259 26.0908 15.083 26.2409C14.9401 26.391 14.7472 26.4626 14.5043 26.4626C14.3042 26.4626 14.1399 26.4054 13.997 26.2981C13.854 26.1837 13.7683 26.0409 13.7326 25.8478C13.7183 25.7764 13.7183 25.7121 13.7183 25.6407V20.5091Z" fill="#FFE600"/>
<path fill-rule="evenodd" clip-rule="evenodd" d="M18.0267 19.6132C18.0902 19.438 18.182 19.3119 18.3092 19.2347C18.4364 19.1576 18.5917 19.1225 18.7896 19.1225H19.1639C19.3687 19.1225 19.5381 19.1646 19.6724 19.2418C19.8067 19.3188 19.9195 19.4801 19.9973 19.7113L21.883 25.1299C21.9467 25.2981 21.989 25.4383 22.0102 25.5643C22.0243 25.6415 22.0385 25.7045 22.0385 25.7536C22.0385 25.9499 21.9608 26.1181 21.8195 26.2514C21.6782 26.3916 21.5017 26.4546 21.3039 26.4546C20.9436 26.4546 20.7107 26.3075 20.6047 26.0129L20.2021 24.8353H17.6877L17.2851 26.0129C17.1862 26.3075 16.9531 26.4546 16.5859 26.4546C16.4023 26.4546 16.2468 26.4125 16.1269 26.3144C15.9997 26.2232 15.922 26.083 15.8867 25.9147C15.8726 25.8658 15.8726 25.8097 15.8726 25.7536C15.8726 25.6764 15.8796 25.5785 15.9149 25.4663C15.9432 25.354 15.9785 25.2418 16.0209 25.1368L18.0267 19.6132ZM18.9661 20.8678H18.9449L18.0267 23.7137H19.8489L18.9661 20.8678Z" fill="#FFE600"/>
<path fill-rule="evenodd" clip-rule="evenodd" d="M22.2095 19.9164C22.2095 19.6795 22.2788 19.4846 22.417 19.3384C22.5553 19.1922 22.7421 19.1225 22.9772 19.1225C23.1709 19.1225 23.3368 19.1782 23.4683 19.2827C23.5997 19.3872 23.6897 19.5334 23.7241 19.7145C23.7381 19.784 23.745 19.8468 23.7381 19.9164V24.9304H26.29C26.4976 24.9304 26.6704 24.9721 26.8087 25.0697C26.9471 25.1601 27.037 25.2925 27.0646 25.4596C27.0785 25.5013 27.0854 25.5572 27.0854 25.6058C27.0854 25.8217 27.0093 25.9888 26.8571 26.1002C26.705 26.2187 26.5183 26.2744 26.29 26.2744H23.1018C22.8666 26.2744 22.673 26.2256 22.5277 26.128C22.3825 26.0306 22.2857 25.8774 22.2373 25.6545C22.2164 25.5641 22.2095 25.4596 22.2026 25.3413L22.2095 19.9164Z" fill="#FFE600"/>
<path fill-rule="evenodd" clip-rule="evenodd" d="M27.2305 19.9216C27.2305 19.6833 27.3018 19.487 27.4442 19.3399C27.5869 19.1926 27.7792 19.1225 28.0215 19.1225C28.2211 19.1225 28.3849 19.1786 28.5274 19.2836C28.67 19.3889 28.7555 19.536 28.791 19.7184C28.8054 19.7883 28.8124 19.8515 28.8054 19.9216L28.8124 22.2697L31.2854 19.473C31.3994 19.3537 31.4919 19.2698 31.5846 19.2066C31.6772 19.1505 31.7842 19.1225 31.9124 19.1225C32.0835 19.1225 32.2403 19.1717 32.3827 19.2627C32.5253 19.3537 32.6108 19.4801 32.6464 19.6412C32.6464 19.6481 32.6536 19.6692 32.6607 19.7042C32.6607 19.7253 32.6607 19.7534 32.6678 19.7674C32.6678 19.8795 32.6393 19.9777 32.5967 20.0618C32.5467 20.153 32.4825 20.2369 32.4112 20.3212L30.7936 22.0594L32.7035 25.0386L32.7605 25.1299C32.8888 25.333 32.9672 25.4803 32.9884 25.5785C32.9884 25.5854 32.9957 25.6065 33.0028 25.6274C33.0028 25.6555 33.0028 25.6695 33.0028 25.6764C33.0028 25.9499 32.9244 26.1531 32.7676 26.2723C32.6108 26.3916 32.4185 26.4546 32.1974 26.4546C32.0336 26.4546 31.9053 26.4265 31.8055 26.3705C31.7059 26.3075 31.5988 26.2022 31.4992 26.034L29.6818 23.16L28.8197 24.0433L28.8268 25.6486C28.8268 25.8869 28.7555 26.083 28.613 26.2303C28.4704 26.3774 28.278 26.4477 28.0358 26.4477C27.8362 26.4477 27.6653 26.3916 27.5297 26.2863C27.3943 26.1742 27.3018 26.034 27.266 25.8446C27.2519 25.7746 27.2519 25.7116 27.2519 25.6415L27.2305 19.9216Z" fill="#FFE600"/>
</g>
</svg>
