<svg width="10" height="13" viewBox="0 0 10 13" fill="none" xmlns="http://www.w3.org/2000/svg">
<path d="M4.99999 11.6495L4.68085 11.3849C3.93775 10.7688 3.24881 10.0932 2.62127 9.36516L2.62115 9.36503C2.1499 8.81791 1.62556 8.12707 1.21693 7.36833C0.810681 6.61403 0.500062 5.75821 0.500001 4.89034L4.99999 11.6495ZM4.99999 11.6495L5.31913 11.3849M4.99999 11.6495L5.31913 11.3849M5.31913 11.3849C6.06223 10.7688 6.75117 10.0932 7.37871 9.36517L7.37883 9.36503M5.31913 11.3849L7.37883 9.36503M7.37883 9.36503C7.85009 8.81791 8.37442 8.12707 8.78305 7.36833C9.18922 6.61417 9.4998 5.75854 9.49998 4.89084C9.50176 4.31218 9.38549 3.73926 9.15828 3.20535C8.93105 2.6714 8.59759 2.1875 8.17788 1.78122C7.54778 1.16836 6.74653 0.752453 5.87622 0.583987C5.00574 0.41549 4.10326 0.501674 3.28242 0.83219C2.46147 1.16275 1.75758 1.72353 1.26142 2.44572C0.765195 3.16802 0.499604 4.01871 0.500001 4.89008L7.37883 9.36503ZM4.13631 4.07033C4.36302 3.84997 4.67344 3.72374 4.99999 3.72374C5.32654 3.72374 5.63696 3.84997 5.86367 4.07033C6.08989 4.29022 6.21427 4.5854 6.21427 4.89008C6.21427 5.19476 6.08989 5.48994 5.86367 5.70983C5.63696 5.9302 5.32654 6.05642 4.99999 6.05642C4.67344 6.05642 4.36302 5.9302 4.13632 5.70983C3.91009 5.48994 3.78571 5.19476 3.78571 4.89008C3.78571 4.5854 3.91009 4.29023 4.13631 4.07033Z" stroke="#46DE8C"/>
</svg>
