<svg width="14" height="19" viewBox="0 0 14 19" fill="none" xmlns="http://www.w3.org/2000/svg">
<path d="M7 18.9555C5.73694 17.8211 4.56619 16.5776 3.5 15.2378C1.9 13.2257 8.78894e-07 10.2292 8.78894e-07 7.37384C-0.00069302 5.91556 0.409509 4.48984 1.17869 3.27712C1.94788 2.06439 3.04147 1.11918 4.32107 0.561086C5.60067 0.00299722 7.00875 -0.142875 8.36712 0.14193C9.72548 0.426735 10.9731 1.12941 11.952 2.16104C12.6038 2.84421 13.1204 3.65669 13.4719 4.55147C13.8234 5.44624 14.0029 6.40554 14 7.37384C14 10.2292 12.1 13.2257 10.5 15.2378C9.4338 16.5776 8.26306 17.8211 7 18.9555ZM7 4.2152C6.20435 4.2152 5.44129 4.54799 4.87868 5.14035C4.31607 5.7327 4 6.53611 4 7.37384C4 8.21156 4.31607 9.01497 4.87868 9.60733C5.44129 10.1997 6.20435 10.5325 7 10.5325C7.79565 10.5325 8.55871 10.1997 9.12132 9.60733C9.68393 9.01497 10 8.21156 10 7.37384C10 6.53611 9.68393 5.7327 9.12132 5.14035C8.55871 4.54799 7.79565 4.2152 7 4.2152Z" fill="#858899"/>
</svg>
