<svg width="8" height="8" viewBox="0 0 8 8" fill="none" xmlns="http://www.w3.org/2000/svg">
<path d="M4 0C3.20888 0 2.43552 0.234596 1.77772 0.674121C1.11992 1.11365 0.607234 1.73836 0.304484 2.46927C0.00173314 3.20017 -0.0774802 4.00444 0.0768607 4.78036C0.231202 5.55628 0.612164 6.26902 1.17157 6.82843C1.73098 7.38784 2.44372 7.7688 3.21964 7.92314C3.99556 8.07748 4.79983 7.99827 5.53073 7.69552C6.26164 7.39277 6.88635 6.88008 7.32588 6.22228C7.7654 5.56448 8 4.79112 8 4C7.99797 2.93976 7.57589 1.92352 6.82618 1.17382C6.07648 0.424113 5.06024 0.00203307 4 0ZM5.45 5.01154C5.50778 5.06987 5.54019 5.14866 5.54019 5.23077C5.54019 5.31287 5.50778 5.39166 5.45 5.45C5.39119 5.50687 5.31258 5.53866 5.23077 5.53866C5.14896 5.53866 5.07035 5.50687 5.01154 5.45L4 4.43461L2.98846 5.45C2.92965 5.50687 2.85104 5.53866 2.76923 5.53866C2.68742 5.53866 2.60881 5.50687 2.55 5.45C2.49222 5.39166 2.45981 5.31287 2.45981 5.23077C2.45981 5.14866 2.49222 5.06987 2.55 5.01154L3.56539 4L2.55 2.98846C2.50094 2.92868 2.47586 2.85278 2.47966 2.77553C2.48345 2.69829 2.51584 2.62521 2.57053 2.57053C2.62522 2.51584 2.69829 2.48345 2.77554 2.47965C2.85278 2.47586 2.92868 2.50093 2.98846 2.55L4 3.56538L5.01154 2.55C5.07132 2.50093 5.14722 2.47586 5.22447 2.47965C5.30171 2.48345 5.37479 2.51584 5.42947 2.57053C5.48416 2.62521 5.51655 2.69829 5.52035 2.77553C5.52414 2.85278 5.49907 2.92868 5.45 2.98846L4.43462 4L5.45 5.01154Z" fill="#FF5858"/>
</svg>
